<svg width="28" height="28" viewBox="0 0 28 28" fill="none" xmlns="http://www.w3.org/2000/svg">
<path d="M14 10.355C11.993 10.355 10.3551 11.9929 10.3551 13.9999C10.3551 16.007 11.993 17.6449 14 17.6449C16.007 17.6449 17.6449 16.007 17.6449 13.9999C17.6449 11.9929 16.007 10.355 14 10.355ZM24.932 13.9999C24.932 12.4906 24.9457 10.9949 24.8609 9.48822C24.7762 7.73822 24.377 6.18509 23.0973 4.9054C21.8149 3.62298 20.2645 3.2265 18.5145 3.14173C17.0051 3.05697 15.5094 3.07064 14.0027 3.07064C12.4934 3.07064 10.9977 3.05697 9.49102 3.14173C7.74102 3.2265 6.1879 3.62572 4.90821 4.9054C3.62579 6.18782 3.2293 7.73822 3.14454 9.48822C3.05977 10.9976 3.07345 12.4933 3.07345 13.9999C3.07345 15.5066 3.05977 17.005 3.14454 18.5117C3.2293 20.2617 3.62852 21.8148 4.90821 23.0945C6.19063 24.3769 7.74102 24.7734 9.49102 24.8581C11.0004 24.9429 12.4961 24.9292 14.0027 24.9292C15.5121 24.9292 17.0078 24.9429 18.5145 24.8581C20.2645 24.7734 21.8176 24.3742 23.0973 23.0945C24.3797 21.812 24.7762 20.2617 24.8609 18.5117C24.9484 17.005 24.932 15.5093 24.932 13.9999ZM14 19.6081C10.8965 19.6081 8.3918 17.1034 8.3918 13.9999C8.3918 10.8964 10.8965 8.39173 14 8.39173C17.1035 8.39173 19.6082 10.8964 19.6082 13.9999C19.6082 17.1034 17.1035 19.6081 14 19.6081ZM19.8379 9.47181C19.1133 9.47181 18.5281 8.88665 18.5281 8.16204C18.5281 7.43743 19.1133 6.85228 19.8379 6.85228C20.5625 6.85228 21.1477 7.43743 21.1477 8.16204C21.1479 8.33411 21.1141 8.50452 21.0484 8.66352C20.9827 8.82253 20.8862 8.967 20.7645 9.08867C20.6429 9.21034 20.4984 9.3068 20.3394 9.37255C20.1804 9.43829 20.01 9.47202 19.8379 9.47181Z" fill="white"/>
</svg>
