<svg width="28" height="28" viewBox="0 0 28 28" fill="none" xmlns="http://www.w3.org/2000/svg">
<path fill-rule="evenodd" clip-rule="evenodd" d="M11.0005 10.4638H15.3335V12.6221C15.9577 11.3808 17.5584 10.2654 19.9629 10.2654C24.5724 10.2654 25.6667 12.7364 25.6667 17.2701V25.6666H21V18.3026C21 15.7208 20.3759 14.2648 18.7869 14.2648C16.583 14.2648 15.6672 15.8339 15.6672 18.3014V25.6666H11.0005V10.4638ZM2.99837 25.4683H7.66504V10.2654H2.99837V25.4683ZM8.33354 5.30825C8.33371 5.69941 8.25614 6.08669 8.10533 6.4476C7.95451 6.80851 7.73347 7.13585 7.45504 7.41059C6.89084 7.97131 6.12715 8.28518 5.33171 8.28325C4.53766 8.28272 3.77574 7.96965 3.21071 7.41175C2.93329 7.13608 2.71299 6.80838 2.56244 6.44742C2.41189 6.08646 2.33405 5.69935 2.33337 5.30825C2.33337 4.51842 2.64837 3.76242 3.21187 3.20475C3.77641 2.6461 4.53865 2.3329 5.33287 2.33325C6.12854 2.33325 6.89154 2.64709 7.45504 3.20475C8.01737 3.76242 8.33354 4.51842 8.33354 5.30825Z" fill="white"/>
</svg>
