<svg xmlns="http://www.w3.org/2000/svg" width="38" height="38" fill="none" viewBox="0 0 38 38"><path fill="#0352FF" d="M19 33.2499C17.0002 31.5441 15.1465 29.674 13.4584 27.6592C10.925 24.6334 7.91669 20.1273 7.91669 15.8333C7.91559 13.6403 8.56508 11.4963 9.78295 9.67257C11.0008 7.84885 12.7323 6.42742 14.7584 5.58816C16.7844 4.74889 19.0139 4.52953 21.1646 4.95782C23.3154 5.38611 25.2907 6.44282 26.8407 7.99419C27.8726 9.02155 28.6906 10.2434 29.2472 11.589C29.8038 12.9345 30.088 14.3771 30.0834 15.8333C30.0834 20.1273 27.075 24.6334 24.5417 27.6592C22.8535 29.674 20.9999 31.5441 19 33.2499ZM19 11.0833C17.7402 11.0833 16.5321 11.5837 15.6413 12.4745C14.7505 13.3653 14.25 14.5735 14.25 15.8333C14.25 17.0931 14.7505 18.3012 15.6413 19.192C16.5321 20.0828 17.7402 20.5833 19 20.5833C20.2598 20.5833 21.468 20.0828 22.3588 19.192C23.2496 18.3012 23.75 17.0931 23.75 15.8333C23.75 14.5735 23.2496 13.3653 22.3588 12.4745C21.468 11.5837 20.2598 11.0833 19 11.0833Z"/></svg>