<svg width="38" height="38" viewBox="0 0 38 38" fill="none" xmlns="http://www.w3.org/2000/svg">
<path d="M34.8334 13.6293V26.5208C34.8334 27.8351 34.3306 29.0997 33.4279 30.0551C32.5252 31.0105 31.2911 31.5843 29.9789 31.6587L29.6875 31.6666H8.31252C6.99814 31.6667 5.73354 31.1638 4.77815 30.2611C3.82277 29.3584 3.24902 28.1244 3.1746 26.8121L3.16669 26.5208V13.6293L18.449 21.6346C18.619 21.7236 18.8081 21.7702 19 21.7702C19.1919 21.7702 19.381 21.7236 19.551 21.6346L34.8334 13.6293ZM8.31252 6.33325H29.6875C30.963 6.3331 32.1931 6.80666 33.1392 7.66209C34.0854 8.51752 34.6801 9.69385 34.808 10.9629L19 19.2438L3.19202 10.9629C3.31477 9.74425 3.86818 8.60932 4.75279 7.76215C5.6374 6.91498 6.79518 6.41113 8.01802 6.34117L8.31252 6.33325H29.6875H8.31252Z" fill="#0352FF"/>
</svg>
