<svg xmlns="http://www.w3.org/2000/svg" width="38" height="38" fill="none" viewBox="0 0 38 38"><path fill="#0352FF" d="M12.3057 3.86177L14.0094 3.31711C15.6069 2.80727 17.3138 3.63219 17.9978 5.24402L19.3594 8.45502C19.9516 9.85311 19.6223 11.4982 18.5456 12.521L15.5452 15.3679C15.7304 17.0715 16.3036 18.7483 17.2631 20.3981C18.1743 21.9943 19.3964 23.3915 20.8573 24.5069L24.4609 23.3035C25.8258 22.8491 27.3141 23.3732 28.1501 24.6034L30.1024 27.4693C31.0761 28.9006 30.9004 30.8734 29.6923 32.0863L28.3987 33.3862C27.1099 34.6798 25.2684 35.15 23.5664 34.618C19.5447 33.364 15.8508 29.6416 12.4783 23.4508C9.10102 17.2504 7.90877 11.9874 8.90311 7.66811C9.32111 5.85044 10.6147 4.40169 12.3057 3.86177Z"/></svg>